<svg xmlns="http://www.w3.org/2000/svg" viewBox="0 0 2048 2048" width="1280" height="1280"><path transform="translate(959,1283)" d="m0 0h107l16 3 13 5 12 7 11 9 7 7 9 13 7 14 5 17 1 6v27l-3 14-6 16-9 15-12 13-9 7-2 1 2 5 12 14 10 11 9 11 7 8 5 10 1 4v8l-3 9-4 6-9 8-7 2h-11l-8-3-10-9-12-14-9-10-9-11-11-12-9-11-9-10-49-1v49l-2 13-7 11-9 5-9 2-10-1-8-4-7-8-4-10v-223l4-10 7-8 8-4zm33 59v72h71l10-4 6-4 7-7 4-8 2-8v-11l-5-14-9-10-8-5-3-1z" fill="#007FC2"></path><path transform="translate(764,1283)" d="m0 0h11l9 4 6 5 8 14 38 76 11 23 51 102 3 9v13l-4 10-6 7-10 5-11 1-10-3-8-7-14-27-3-7h-131l-11 23-7 12-6 5-7 3-11 1-11-4-8-7-5-11v-14l9-20 40-80 11-23 33-66 11-23 5-9 6-7zm5 90-39 78v2h79l-2-6-14-28-11-23-11-22z" fill="#007FC2"></path><path transform="translate(1585,1279)" d="m0 0h28l27 4 21 6 16 8 7 8 4 11v8l-4 10-6 9-5 4-9 3h-8l-28-9-15-3h-21l-13 2-12 6-4 5-1 3v10l4 5 12 6 19 5 25 5 17 5 17 7 16 10 13 13 7 10 6 12 4 18v19l-4 18-8 16-7 10-10 10-10 7-19 9-18 5-17 2h-23l-22-3-18-5-19-9-17-12-7-8-3-8-1-10 3-11 6-8 6-5 8-3h11l10 5 10 7 8 4 15 5 13 2h19l11-2 12-4 9-6 4-7 1-3v-11l-3-6-8-6-13-6-19-5-25-5-20-6-16-8-9-6-9-8-8-11-5-10-4-12-1-7v-17l3-16 5-12 7-11 10-11 13-9 12-6 12-4z" fill="#007FC2"></path><path transform="translate(1227,1283)" d="m0 0h11l10 4 8 8 4 9 1 5 1 132 4 14 7 13 8 10 8 7 11 6 10 4 10 2h15l15-4 12-6 10-8 7-8 8-14 4-12 2-13 1-129 4-8 8-8 9-4h12l9 4 7 6 5 9 1 4v133l-3 19-5 17-7 15-8 14-13 16-11 10-15 10-21 10-21 5-9 1h-21l-18-3-15-5-17-9-12-9-10-9-9-9-9-13-10-19-6-18-3-14-1-11v-131l4-10 6-7 9-5z" fill="#007FC2"></path><path transform="translate(263,1279)" d="m0 0h27l20 4 14 5 21 11 16 12 10 10 5 8 2 6v10l-5 12-8 8-6 3-7 2-10-1-6-3-10-9-13-9-10-5-12-4-10-1h-13l-14 3-12 5-11 7-13 13-7 11-6 13-3 11-1 7v21l4 17 8 16 9 12 9 8 13 8 18 6 6 1h17l16-4 16-8 7-6h2l2-4h2v-2l7-5 5-2h15l8 4 7 7 5 10 1 4v9l-4 10-7 9-10 9-15 10-16 8-13 5-12 3-16 2h-19l-16-2-15-4-18-8-14-8-11-9-10-9-10-12-10-16-7-14-7-21-3-16-1-13v-13l2-20 5-19 8-19 7-13 8-11 11-12 9-9 16-11 16-8 16-6z" fill="#007FC2"></path><path transform="translate(450,1283)" d="m0 0h10l11 4 8 8 4 10 1 6v183h124l10 6 6 8 3 8v15l-4 8-7 8-9 4-8 1h-146l-8-2-8-5-6-8-3-8v-223l4-10 7-8z" fill="#007FC2"></path><path transform="translate(1180,836)" d="m0 0h15l14 3 16 8 12 11 9 14 5 15 1 5v14l-2 11-5 13-9 13-10 9-10 6-11 4-13 2h-10l-15-3-14-7-9-7-8-9-8-14-4-15v-17l4-16 7-13 11-12 8-6 12-6z" fill="#FFCC38"></path><path transform="translate(860,836)" d="m0 0h15l14 3 16 8 13 12 8 13 5 15 1 5v15l-2 10-5 13-9 13-10 9-15 8-11 3-17 1-12-2-15-6-11-8-9-10-8-14-4-15v-18l4-15 7-13 11-12 8-6 12-6z" fill="#FFCC38"></path><path transform="translate(1016,768)" d="m0 0h15l14 3 16 8 12 11 9 14 5 15 1 5v14l-3 14-4 10-9 13-10 9-16 8-10 3-17 1-16-3-14-7-9-7-8-9-8-14-4-15v-18l4-15 7-13 9-10 8-7 14-7z" fill="#FFCC38"></path><path transform="translate(1228,984)" d="m0 0h15l14 3 16 8 12 11 9 14 5 15 1 5v15l-2 10-5 13-7 10-7 8-10 7-11 5-10 3-17 1-16-3-14-7-9-7-8-9-8-14-4-15v-18l4-15 7-13 11-12 8-6 12-6z" fill="#FFCC38"></path><path transform="translate(804,984)" d="m0 0h15l14 3 16 8 12 11 9 14 5 15 1 5v15l-2 10-5 13-7 10-7 8-10 7-11 5-10 3-17 1-16-3-14-7-9-7-8-9-8-14-4-15v-18l4-15 7-13 9-10 8-7 14-7z" fill="#FFCC38"></path><path transform="translate(747,728)" d="m0 0h13l13 3 12 7 9 9 6 11 4 13v13l-3 12-6 11-8 9-11 7-11 4-15 1-11-2-9-4-9-6-9-10-6-12-2-8v-15l3-11 6-12 10-10 10-6 9-3z" fill="#FFCC38"></path><path transform="translate(1295,732)" d="m0 0h13l13 3 12 7 9 9 8 16 2 8v13l-3 12-6 11-8 9-11 7-12 4-14 1-14-3-10-5-10-9-7-10-4-11-1-4v-15l3-11 6-12 10-10 10-6 8-3z" fill="#FFCC38"></path><path transform="translate(1015,616)" d="m0 0h13l13 3 12 7 9 9 5 8 4 11 1 5v13l-3 12-6 11-8 9-11 7-11 4-15 1-14-3-10-5-10-9-6-9-4-8-2-8v-15l3-11 6-12 10-10 10-6 9-3z" fill="#FFCC38"></path><path transform="translate(1399 1e3)" d="m0 0h13l13 3 12 7 9 9 6 11 4 13v13l-3 12-6 11-8 9-11 7-12 4-13 1-12-2-9-4-9-6-9-10-6-12-2-8v-15l3-11 6-12 10-10 10-6 8-3z" fill="#FFCC38"></path><path transform="translate(635 1e3)" d="m0 0h13l13 3 12 7 9 9 6 11 4 13v13l-3 12-6 11-8 9-11 7-12 4-13 1-12-2-9-4-9-6-9-10-6-12-2-8v-15l3-11 6-12 10-10 10-6 8-3z" fill="#FFCC38"></path><path transform="translate(1794,1286)" d="m0 0h87l5 3 4 7v8l-4 7-4 3-5 1h-25v92l-3 7-5 5-6 1-8-3-4-5-1-3v-94h-29l-8-7-2-10 5-10z" fill="#007FC2"></path><path transform="translate(1013,480)" d="m0 0h12l9 2 9 5 8 7 6 10 3 10v12l-3 10-7 11-7 6-10 5-11 2-12-1-10-4-8-6-7-9-4-9-1-4v-14l4-12 6-8 8-7 7-4z" fill="#FFCC38"></path><path transform="translate(1393,636)" d="m0 0h12l9 2 9 5 8 7 6 10 3 10v12l-3 10-7 11-7 6-10 5-12 2-11-1-10-4-8-6-7-9-4-9-1-4v-14l4-12 6-8 8-7 7-4z" fill="#FFCC38"></path><path transform="translate(653,632)" d="m0 0h12l9 2 9 5 8 7 6 10 3 10v11l-2 8-5 10-7 8-8 5-9 3-13 1-12-3-10-6-7-8-6-12-1-4v-14l4-12 6-8 8-7 8-4z" fill="#FFCC38"></path><path transform="translate(1545,1008)" d="m0 0h12l9 2 9 5 8 7 6 10 3 10v12l-3 10-7 11-7 6-10 5-15 2-12-2-11-6-9-10-5-11-1-4v-14l4-12 6-8 8-7 8-4z" fill="#FFCC38"></path><path transform="translate(493,1008)" d="m0 0h12l9 2 9 5 8 7 6 10 3 10v12l-3 10-7 11-7 6-10 5-15 2-12-2-11-6-8-9-6-12-1-4v-14l4-12 6-8 8-7 8-4z" fill="#FFCC38"></path><path transform="translate(1752,1286)" d="m0 0h8l6 4 4 8v107l-3 9-5 5-7 1-7-3-4-5-1-3v-113l4-7z" fill="#007FC2"></path><path transform="translate(1857,1294)" d="m0 0h22l2 2v9l-4 2h-20l-9 2-3 6-1 93-2 3h-7l-2-3-1-93-1-7-34-2-2-4 1-7z" fill="#FDFDFD"></path><path transform="translate(1753,1294)" d="m0 0 7 1 1 1v113l-2 2-7-1v-115z" fill="#FDFDFD"></path></svg>